HIERARCHY
ROOT Hips
{
	OFFSET 0.00000 0.00000 0.00000
	CHANNELS 6 Xposition Yposition Zposition Zrotation Yrotation Xrotation 
	JOINT LHipJoint
	{
		OFFSET 0 0 0
		CHANNELS 3 Zrotation Yrotation Xrotation
		JOINT LeftHip
		{
			OFFSET 1.64549 -1.70879 0.84566
			CHANNELS 3 Zrotation Yrotation Xrotation
			JOINT LeftKnee
			{
				OFFSET 2.24963 -6.18082 0.00000
				CHANNELS 3 Zrotation Yrotation Xrotation
				JOINT LeftAnkle
				{
					OFFSET 2.71775 -7.46697 0.00000
					CHANNELS 3 Zrotation Yrotation Xrotation
					JOINT LeftToe
					{
						OFFSET 0.18768 -0.51564 2.24737
						CHANNELS 3 Zrotation Yrotation Xrotation
						End Site
						{
							OFFSET 0.00000 -0.00000 1.15935
						}
					}
				}
			}
		}
	}
	JOINT RHipJoint
	{
		OFFSET 0 0 0
		CHANNELS 3 Zrotation Yrotation Xrotation
		JOINT RightHip
		{
			OFFSET -1.58830 -1.70879 0.84566
			CHANNELS 3 Zrotation Yrotation Xrotation
			JOINT RightKnee
			{
				OFFSET -2.25006 -6.18201 0.00000
				CHANNELS 3 Zrotation Yrotation Xrotation
				JOINT RightAnkle
				{
					OFFSET -2.72829 -7.49593 0.00000
					CHANNELS 3 Zrotation Yrotation Xrotation
					JOINT RightToe
					{
						OFFSET -0.21541 -0.59185 2.10643
						CHANNELS 3 Zrotation Yrotation Xrotation
						End Site
						{
							OFFSET -0.00000 -0.00000 1.09838
						}
					}
				}
			}
		}
	}
	JOINT lowerback
	{
		OFFSET 0 0 0
		CHANNELS 3 Zrotation Yrotation Xrotation
		JOINT Chest
		{
			OFFSET 0.03142 2.10496 -0.11038
			CHANNELS 3 Zrotation Yrotation Xrotation
			JOINT Chest2
			{
				OFFSET -0.01863 2.10897 -0.06956
				CHANNELS 3 Zrotation Yrotation Xrotation
				JOINT lowerneck
				{
					OFFSET 0 0 0
					CHANNELS 3 Zrotation Yrotation Xrotation
					JOINT Neck
					{
						OFFSET -0.02267 1.73238 0.00451
						CHANNELS 3 Zrotation Yrotation Xrotation
						JOINT Head
						{
							OFFSET -0.05808 1.54724 -0.61749
							CHANNELS 3 Zrotation Yrotation Xrotation
							End Site
							{
								OFFSET -0.01396 1.71468 -0.21082
							}
						}
					}
				}
				JOINT LeftCollar
				{
					OFFSET 0 0 0
					CHANNELS 3 Zrotation Yrotation Xrotation
					JOINT LeftShoulder
					{
						OFFSET 3.44898 0.50298 0.21920
CHANNELS 3 Zrotation Xrotation Yrotation
						JOINT LeftElbow
						{
OFFSET 0 -5.419170 -0.000000
CHANNELS 3 Zrotation Xrotation Yrotation
							JOINT LeftWrist
							{
OFFSET 0 -2.443730 0.000000
CHANNELS 3 Zrotation Xrotation Yrotation
								JOINT lhand
								{
									OFFSET 0 0 0
CHANNELS 3 Zrotation Xrotation Yrotation
									JOINT LFingers
									{
OFFSET 0 -0.727500 0.000000
CHANNELS 3 Zrotation Xrotation Yrotation
										End Site
										{
OFFSET 0 -0.586530 0.000000
										}
									}
								}
								JOINT LThumb
								{
OFFSET 0 0.000000 0.000000
CHANNELS 3 Zrotation Xrotation Yrotation
									End Site
									{
OFFSET 0 -0.595490 0.595490
									}
								}
							}
						}
					}
				}
				JOINT RightCollar
				{
					OFFSET 0 0 0
					CHANNELS 3 Zrotation Yrotation Xrotation
					JOINT RightShoulder
					{
						OFFSET -3.23015 0.55830 0.31051
CHANNELS 3 Zrotation Xrotation Yrotation
						JOINT RightElbow
						{
OFFSET 0 -5.589760 0.000140
CHANNELS 3 Zrotation Xrotation Yrotation
							JOINT RightWrist
							{
OFFSET 0 -2.480600 0.000000
CHANNELS 3 Zrotation Xrotation Yrotation
								JOINT rhand
								{
									OFFSET 0 0 0
CHANNELS 3 Zrotation Xrotation Yrotation
									JOINT RFingers
									{
OFFSET 0 -0.816010 0.000000
CHANNELS 3 Zrotation Xrotation Yrotation
										End Site
										{
OFFSET 0 -0.657890 0.000000
										}
									}
								}
								JOINT RThumb
								{
OFFSET 0 0.000000 0.000000
CHANNELS 3 Zrotation Xrotation Yrotation
									End Site
									{
OFFSET 0 -0.667930 0.667930
									}
								}
							}
						}
					}
				}
			}
		}
	}
}
MOTION
Frames: 7
Frame Time: 0.008333333333333333
3.135459 19.054064 -3.527647 -54.415920 -25.658195 86.752464 0.000000 0.000000 0.000000 29.802161 9.289243 -57.397679 1.992759 8.850284 25.328532 11.265213 -14.880701 -63.684104 8.389044 16.397993 53.952030 0.000000 0.000000 0.000000 3.728595 -4.029501 19.393111 -9.946968 -17.379516 59.310413 -7.555623 -27.379372 51.821237 -0.492457 -4.491140 12.464115 14.766758 9.272853 -13.281670 2.451877 11.163120 -20.023009 -4.657917 3.497131 -13.462635 4.765745 11.313533 -10.798661 9.981185 13.792662 4.507431 3.287192 7.357487 2.951350 0.000000 0.000000 0.000000 84.121822 25.364427 15.322440 10.603648 -17.678227 1.653547 0.148293 34.949864 -33.278406 0.000000 0.000000 0.000000 -7.125000 0.000000 0.000000 -36.577520 59.314823 13.928854 0.000000 0.000000 0.000000 -106.024233 -10.436120 -50.136787 -10.309402 -17.222126 -1.565374 -0.318173 13.131719 1.919825 0.000000 0.000000 0.000000 7.125000 0.000000 0.000000 20.726194 31.414032 7.314308
3.151057 19.021457 -3.570856 -54.435334 -23.845627 85.687754 0.000000 0.000000 0.000000 32.092907 8.854979 -57.101624 2.124379 9.120376 26.172662 11.187635 -15.375142 -63.419520 8.410195 16.412843 54.027054 0.000000 0.000000 0.000000 6.364341 -5.077121 19.634185 -9.657448 -17.212643 58.337177 -7.304251 -30.165618 51.418947 -0.770159 -5.602139 15.634673 16.495599 9.174986 -12.210353 2.805960 11.197858 -19.531845 -5.250024 3.342816 -13.312576 4.905132 11.304467 -11.098098 9.721252 13.770178 4.235198 3.187600 7.334003 2.942529 0.000000 0.000000 0.000000 84.000898 25.194732 15.268520 10.577811 -17.638307 1.645709 -0.000657 34.469719 -33.264170 0.000000 0.000000 0.000000 -7.125000 0.000000 0.000000 -36.706846 59.269119 13.946174 0.000000 0.000000 0.000000 -105.834085 -10.417329 -51.951740 -10.142021 -16.961395 -1.516141 -0.253849 14.529497 1.578234 0.000000 0.000000 0.000000 7.125000 0.000000 0.000000 20.701562 31.091944 7.476421
3.143072 19.019629 -3.563225 -54.187624 -26.214135 85.754327 0.000000 0.000000 0.000000 29.715189 8.306161 -57.497244 2.264357 9.395594 27.041352 11.212135 -15.801525 -63.489770 8.416597 16.417276 54.049797 0.000000 0.000000 0.000000 3.808879 -6.183202 18.496991 -9.412121 -17.065519 57.504467 -7.207813 -29.390353 50.954898 -0.759673 -5.529865 15.435496 14.068518 9.092173 -12.525771 2.176599 11.116654 -19.407965 -4.691151 3.617752 -13.082197 4.753182 11.191184 -10.870713 9.591969 13.695209 3.942565 3.126537 7.273692 2.798340 0.000000 0.000000 0.000000 83.873137 24.582759 16.263219 10.307948 -17.219722 1.564930 0.654894 36.049852 -32.214712 0.000000 0.000000 0.000000 -7.125000 0.000000 0.000000 -35.053329 58.567136 12.612093 0.000000 0.000000 0.000000 -105.803764 -10.422759 -52.731159 -9.979874 -16.708028 -1.469243 -0.358197 15.153141 1.762262 0.000000 0.000000 0.000000 7.125000 0.000000 0.000000 20.662155 31.268267 7.366201
3.134311 19.025030 -3.538553 -53.849278 -29.835022 86.099909 0.000000 0.000000 0.000000 25.932093 7.701470 -58.029926 2.394914 9.643980 27.831651 11.274007 -15.892470 -63.688241 8.411229 16.413545 54.030724 0.000000 0.000000 0.000000 -0.199163 -7.270871 16.859006 -9.187576 -16.926703 56.736213 -7.168014 -30.100602 50.940831 -0.879011 -5.974579 16.711428 10.442394 8.978125 -13.186838 1.264419 10.981409 -19.323140 -3.778072 4.000010 -12.828000 4.518374 11.095681 -10.656063 9.502808 13.650443 3.661737 3.095299 7.229833 2.651584 0.000000 0.000000 0.000000 83.720487 24.081141 16.117499 10.215725 -17.076345 1.537698 1.256569 36.253377 -32.128388 0.000000 0.000000 0.000000 -7.125000 0.000000 0.000000 -34.390951 58.630712 12.386920 0.000000 0.000000 0.000000 -105.870914 -10.472144 -53.747396 -9.745417 -16.340319 -1.402547 -0.412657 16.150238 1.464426 0.000000 0.000000 0.000000 7.125000 0.000000 0.000000 20.557446 30.991563 7.470853
3.138077 19.017119 -3.545894 -53.780785 -30.871552 85.787968 0.000000 0.000000 0.000000 24.980907 7.293240 -57.860107 2.463314 9.770773 28.237665 11.269360 -16.564605 -63.662583 8.470803 16.454863 54.241371 0.000000 0.000000 0.000000 -0.861471 -8.225331 16.003215 -8.954800 -16.778413 55.933445 -7.055099 -31.296800 50.796687 -0.933848 -6.154803 17.234587 9.416516 8.894167 -12.925886 1.031509 10.957744 -19.061746 -3.533611 4.128594 -12.715820 4.619048 11.068194 -10.742241 9.270678 13.596162 3.744802 3.014216 7.200122 2.721938 0.000000 0.000000 0.000000 83.550533 23.825313 15.373103 10.358404 -17.298003 1.580071 1.625242 35.392394 -32.754782 0.000000 0.000000 0.000000 -7.125000 0.000000 0.000000 -34.634934 59.226807 12.998245 0.000000 0.000000 0.000000 -105.711218 -10.563086 -54.189142 -9.705336 -16.277325 -1.391205 -0.400884 16.523929 1.613314 0.000000 0.000000 0.000000 7.125000 0.000000 0.000000 20.598028 31.130484 7.413663
3.132504 19.027561 -3.544040 -53.626583 -32.123254 85.271863 0.000000 0.000000 0.000000 23.770218 6.813251 -57.418234 2.503979 9.845089 28.476650 11.385614 -16.075915 -64.045368 8.424868 16.423010 54.079032 0.000000 0.000000 0.000000 -1.639255 -9.173767 15.408695 -8.691827 -16.604742 55.017444 -6.852621 -32.603749 50.392408 -0.820281 -5.731976 16.021445 8.198491 8.760725 -12.471813 0.733394 10.894642 -18.783226 -3.287272 4.247118 -12.722276 4.956348 11.028640 -10.949234 9.016757 13.454225 4.147238 2.915529 7.143117 2.947907 0.000000 0.000000 0.000000 83.393181 23.774389 14.083990 10.895048 -18.126408 1.743670 0.789862 33.373785 -33.583021 0.000000 0.000000 0.000000 -7.125000 0.000000 0.000000 -36.268075 59.707488 14.138386 0.000000 0.000000 0.000000 -105.461915 -10.795721 -54.596099 -9.720644 -16.301426 -1.395538 -0.291180 16.995974 2.142369 0.000000 0.000000 0.000000 7.125000 0.000000 0.000000 20.795390 31.620929 7.229759
3.126887 19.029938 -3.538275 -53.509375 -32.842926 84.961289 0.000000 0.000000 0.000000 23.135130 6.456277 -57.310569 2.586958 9.994143 28.957988 11.456978 -15.562107 -64.284706 8.353744 16.373399 53.827172 0.000000 0.000000 0.000000 -1.747788 -10.092039 14.683217 -8.421633 -16.420565 54.067207 -6.429228 -34.850614 49.535810 -1.041682 -6.460911 18.137695 7.635756 8.700342 -12.343861 0.508406 10.844566 -18.550182 -3.246134 4.298304 -12.525975 5.125961 11.078325 -10.863865 8.996547 13.485242 4.386437 2.893134 7.167063 3.028273 0.000000 0.000000 0.000000 83.394643 23.799967 13.161091 11.210998 -18.610861 1.842723 0.579263 32.619069 -33.411020 0.000000 0.000000 0.000000 -7.125000 0.000000 0.000000 -36.296600 59.520641 13.985580 0.000000 0.000000 0.000000 -105.286764 -11.386257 -55.703344 -9.588575 -16.093520 -1.358677 -0.165357 18.235399 2.216621 0.000000 0.000000 0.000000 7.125000 0.000000 0.000000 20.906802 31.685143 7.239402
